<svg xmlns="http://www.w3.org/2000/svg" width="1600" height="900" viewBox="0 0 1600 900">
  <defs>
    <marker id="arrow" markerWidth="12" markerHeight="12" refX="10" refY="6" orient="auto" markerUnits="strokeWidth">
      <path d="M2,2 L10,6 L2,10 Z" fill="#1f2933"/>
    </marker>
    <marker id="arrowGreen" markerWidth="12" markerHeight="12" refX="10" refY="6" orient="auto" markerUnits="strokeWidth">
      <path d="M2,2 L10,6 L2,10 Z" fill="#166534"/>
    </marker>
    <marker id="arrowRed" markerWidth="12" markerHeight="12" refX="10" refY="6" orient="auto" markerUnits="strokeWidth">
      <path d="M2,2 L10,6 L2,10 Z" fill="#b91c1c"/>
    </marker>
    <style>
      .title { font: 700 34px Arial, sans-serif; fill: #13315c; }
      .panel-title { font: 700 36px Arial, sans-serif; }
      .box-title { font: 700 24px Arial, sans-serif; fill: #123f1f; }
      .box-title-blue { font: 700 25px Arial, sans-serif; fill: #14376b; }
      .box-title-red { font: 700 24px Arial, sans-serif; fill: #8a1111; }
      .box-title-purple { font: 700 24px Arial, sans-serif; fill: #3b1b63; }
      .code { font: 16px Consolas, 'Courier New', monospace; fill: #111827; }
      .small { font: 15px Arial, sans-serif; fill: #374151; }
      .label { font: 700 16px Arial, sans-serif; fill: #111827; }
      .green-label { font: 700 17px Arial, sans-serif; fill: #166534; }
      .red-label { font: 700 17px Arial, sans-serif; fill: #b91c1c; }
      .panel-blue { fill: #f8fbff; stroke: #17417f; stroke-width: 3; }
      .panel-green { fill: #fbfffb; stroke: #166534; stroke-width: 3; }
      .box-green { fill: #f1fbf3; stroke: #166534; stroke-width: 2.5; }
      .box-blue { fill: #f2f7ff; stroke: #17417f; stroke-width: 2.5; }
      .box-red { fill: #fff7f4; stroke: #b91c1c; stroke-width: 2.5; }
      .box-purple { fill: #faf7ff; stroke: #5b2a86; stroke-width: 2.5; }
      .box-gold { fill: #fffaf0; stroke: #946200; stroke-width: 2.3; }
      .arrow { stroke: #1f2933; stroke-width: 3.5; fill: none; marker-end: url(#arrow); }
      .arrow2 { stroke: #1f2933; stroke-width: 3.5; fill: none; marker-start: url(#arrow); marker-end: url(#arrow); }
      .arrow-green { stroke: #166534; stroke-width: 4; fill: none; marker-end: url(#arrowGreen); }
      .arrow-red { stroke: #b91c1c; stroke-width: 4; fill: none; marker-end: url(#arrowRed); }
      .dash-red { fill: #fff8f6; stroke: #b91c1c; stroke-width: 2.5; stroke-dasharray: 9 7; }
      .icon { stroke: #374151; stroke-width: 4; fill: none; stroke-linecap: round; stroke-linejoin: round; }
    </style>
  </defs>

  <rect x="10" y="10" width="1580" height="880" rx="18" fill="#ffffff"/>

  <rect class="panel-blue" x="25" y="25" width="360" height="850" rx="18"/>
  <text class="panel-title" x="95" y="80" fill="#14376b">Server Machine</text>

  <rect class="panel-green" x="425" y="25" width="1150" height="850" rx="18"/>
  <text class="panel-title" x="840" y="80" fill="#14532d">Client Machine</text>

  <!-- Server icon -->
  <rect x="145" y="105" width="105" height="35" rx="7" fill="#173b70"/>
  <rect x="145" y="150" width="105" height="35" rx="7" fill="#173b70"/>
  <rect x="145" y="195" width="105" height="35" rx="7" fill="#173b70"/>
  <circle cx="166" cy="123" r="5" fill="#dbeafe"/>
  <circle cx="166" cy="168" r="5" fill="#dbeafe"/>
  <circle cx="166" cy="213" r="5" fill="#dbeafe"/>

  <!-- Policy server -->
  <rect class="box-blue" x="55" y="295" width="300" height="205" rx="12"/>
  <text class="box-title-blue" x="100" y="365">DreamZero</text>
  <text class="box-title-blue" x="88" y="397">Policy Server</text>
  <line x1="85" y1="425" x2="325" y2="425" stroke="#17417f" stroke-width="1.5"/>
  <text class="code" x="76" y="462">socket_test_optimized_AR.py</text>

  <!-- Config -->
  <rect class="box-gold" x="500" y="105" width="230" height="115" rx="10"/>
  <text class="box-title" x="575" y="145" fill="#6b4600">Config</text>
  <text class="code" x="535" y="178">config_d2a.yaml</text>
  <text class="code" x="560" y="202">config_d2a.py</text>

  <!-- D2A runner -->
  <rect class="box-green" x="475" y="300" width="265" height="150" rx="12"/>
  <text class="box-title" x="545" y="355">D2A Runner</text>
  <line x1="515" y1="375" x2="700" y2="375" stroke="#166534" stroke-width="1.4"/>
  <text class="code" x="522" y="408">run_sim_eval_d2a.py</text>

  <!-- Environment -->
  <rect class="box-green" x="805" y="270" width="260" height="185" rx="12"/>
  <text class="box-title" x="845" y="320">sim-evals / IsaacLab</text>
  <text class="box-title" x="845" y="352">DROID Environment</text>
  <path class="icon" d="M900 410 l35 -45 l35 45 M935 365 l22 -20 M930 415 h55 M880 430 h105"/>
  <circle cx="935" cy="365" r="9" fill="#ffffff" stroke="#374151" stroke-width="4"/>
  <rect x="975" y="395" width="35" height="35" fill="#e5e7eb" stroke="#374151" stroke-width="3"/>

  <!-- Success checker -->
  <rect class="box-green" x="1190" y="180" width="310" height="150" rx="12"/>
  <text class="box-title" x="1245" y="225">Manual Review</text>
  <line x1="1220" y1="245" x2="1470" y2="245" stroke="#166534" stroke-width="1.4"/>
  <text class="code" x="1210" y="275">success = unknown</text>
  <text class="code" x="1242" y="300">manual edit later</text>

  <!-- Recorder -->
  <rect class="box-green" x="1120" y="395" width="310" height="155" rx="12"/>
  <text class="box-title" x="1180" y="438">Trajectory Recorder</text>
  <line x1="1150" y1="458" x2="1400" y2="458" stroke="#166534" stroke-width="1.4"/>
  <text class="code" x="1140" y="488">trajectory_recorder_run</text>
  <text class="code" x="1174" y="513">_sim_eval_d2a.py</text>

  <!-- Failure branch -->
  <rect class="box-red" x="455" y="645" width="250" height="140" rx="12"/>
  <text class="box-title-red" x="500" y="690">AHA Grid Builder</text>
  <line x1="485" y1="710" x2="675" y2="710" stroke="#b91c1c" stroke-width="1.4"/>
  <text class="code" x="485" y="742">process_data_grid_d2a.py</text>

  <rect class="box-red" x="770" y="640" width="260" height="150" rx="12"/>
  <text class="box-title-red" x="815" y="684">Prompt +</text>
  <text class="box-title-red" x="800" y="716">Request JSON</text>
  <line x1="805" y1="735" x2="995" y2="735" stroke="#b91c1c" stroke-width="1.4"/>
  <text class="code" x="805" y="767">make_json_prompt_d2a.py</text>

  <rect class="dash-red" x="1085" y="630" width="255" height="165" rx="12"/>
  <text class="box-title-red" x="1138" y="682">AHA / VLM</text>
  <text class="box-title-red" x="1118" y="714">AHA Plugin</text>
  <line x1="1115" y1="735" x2="1310" y2="735" stroke="#b91c1c" stroke-width="1.4"/>
  <text class="code" x="1075" y="767">aha_failure_attribution_plugin_d2a.py</text>

  <!-- Results -->
  <rect class="box-purple" x="1390" y="600" width="165" height="230" rx="12"/>
  <text class="box-title-purple" x="1430" y="645">Results</text>
  <line x1="1410" y1="665" x2="1535" y2="665" stroke="#5b2a86" stroke-width="1.4"/>
  <text class="code" x="1405" y="695">report_eval</text>
  <text class="code" x="1406" y="717">_metrics_d2a.py</text>
  <text class="small" x="1412" y="775">episode_results.json</text>
  <text class="small" x="1438" y="800">+ videos + grids</text>

  <!-- Arrows -->
  <path class="arrow" d="M615 220 L615 300"/>
  <path class="arrow2" d="M355 397 L475 397"/>
  <text class="label" x="377" y="370">WebSocket</text>

  <path class="arrow" d="M740 375 L805 375"/>
  <path class="arrow" d="M1065 330 C1115 330 1135 255 1190 255"/>
  <text class="label" x="1045" y="260">state success/failure</text>
  <path class="arrow" d="M1065 415 C1100 415 1085 470 1120 470"/>
  <text class="label" x="1045" y="455">frames + actions</text>

  <path class="arrow-green" d="M1500 255 L1538 255 L1538 600"/>
  <text class="green-label" x="1506" y="238">success</text>

  <path class="arrow-red" d="M1275 550 L1275 595 L580 595 L580 645"/>
  <text class="red-label" x="610" y="575">episode artifacts</text>
  <path class="arrow-red" d="M705 715 L770 715"/>
  <path class="arrow-red" d="M1030 715 L1085 715"/>
  <path class="arrow-red" d="M1340 715 L1390 715"/>
  <text class="red-label" x="1348" y="696">failure reason</text>
</svg>
